PathFileType	4	(X/Y/Z)	 control3min.trc
DataRate	CameraRate	NumFrames	NumMarkers	Units	OrigDataRate	OrigDataStartFrame	OrigNumFrames
200	200	11	35	m	200	1	1000
Frame#	Time	C7			LSH			RSH			MAN			RASI			LASI			HIPR			HIPL			RPSI			LPSI			COX			RTHI1			RTHI2			RTHI3			RTHI4			RSHA1			RSHA2			RSHA3			RSHA4			RHEEL			RMET5			RMET1			RTOE			LTHI1			LTHI2			LTHI3			LTHI4			LSHA1			LSHA2			LSHA3			LSHA4			LHEEL			LMET5			LMET1			LTOE			
		X1	Y1	Z1	X2	Y2	Z2	X3	Y3	Z3	X4	Y4	Z4	X5	Y5	Z5	X6	Y6	Z6	X7	Y7	Z7	X8	Y8	Z8	X9	Y9	Z9	X10	Y10	Z10	X11	Y11	Z11	X12	Y12	Z12	X13	Y13	Z13	X14	Y14	Z14	X15	Y15	Z15	X16	Y16	Z16	X17	Y17	Z17	X18	Y18	Z18	X19	Y19	Z19	X20	Y20	Z20	X21	Y21	Z21	X22	Y22	Z22	X23	Y23	Z23	X24	Y24	Z24	X25	Y25	Z25	X26	Y26	Z26	X27	Y27	Z27	X28	Y28	Z28	X29	Y29	Z29	X30	Y30	Z30	X31	Y31	Z31	X32	Y32	Z32	X33	Y33	Z33	X34	Y34	Z34	X35	Y35	Z35	
1	0.0050	-0.252768	1.367369	-0.523855	-0.171673	1.359739	-0.697693	-0.199707	1.332602	-0.346125	-0.118785	1.318276	-0.519458	-0.110486	0.919038	-0.402048	-0.099071	0.924256	-0.638011	-0.166730	0.962309	-0.379321	-0.155431	0.964208	-0.664314	-0.270521	0.946551	-0.468019	-0.262742	0.949282	-0.581956	-0.273187	0.952346	-0.523372	-0.203457	0.707846	-0.367449	-0.175512	0.655184	-0.363709	-0.118961	0.681488	-0.346255	-0.139866	0.739528	-0.347908	-0.215087	0.312258	-0.365119	-0.232196	0.274006	-0.376829	-0.174315	0.255702	-0.377378	-0.161139	0.294058	-0.370205	-0.330379	0.086680	-0.436112	-0.185921	0.029722	-0.369171	-0.154793	0.037657	-0.436141	-0.125646	0.027882	-0.433443	-0.165866	0.728832	-0.702376	-0.143507	0.671370	-0.699189	-0.082007	0.689806	-0.688200	-0.096902	0.747766	-0.690667	-0.208681	0.319530	-0.696986	-0.229840	0.285254	-0.695478	-0.173395	0.258973	-0.686261	-0.158859	0.300674	-0.689479	-0.345221	0.076830	-0.649733	-0.198198	0.030161	-0.702126	-0.160172	0.036955	-0.634231	-0.135130	0.027973	-0.635320	
2	0.0100	-0.253305	1.372431	-0.524070	-0.172551	1.365348	-0.697697	-0.200540	1.338502	-0.346523	-0.119213	1.324080	-0.519834	-0.109451	0.924444	-0.402294	-0.098387	0.929637	-0.637833	-0.165346	0.968202	-0.379362	-0.154688	0.970038	-0.664056	-0.269459	0.952109	-0.467730	-0.261911	0.954812	-0.581717	-0.272056	0.957604	-0.523305	-0.203616	0.713280	-0.366920	-0.176007	0.660358	-0.362993	-0.119232	0.686328	-0.346097	-0.139553	0.744466	-0.348018	-0.216427	0.316031	-0.364694	-0.233157	0.277719	-0.376311	-0.175139	0.259825	-0.376560	-0.162305	0.298195	-0.369526	-0.329510	0.089980	-0.435255	-0.185109	0.030027	-0.369529	-0.154599	0.037633	-0.436142	-0.125694	0.027880	-0.433498	-0.165976	0.734397	-0.702619	-0.143940	0.676831	-0.699544	-0.082349	0.694909	-0.688477	-0.096931	0.752908	-0.690863	-0.209714	0.324148	-0.697756	-0.230587	0.289649	-0.696227	-0.173912	0.263809	-0.687283	-0.159677	0.305611	-0.690520	-0.343592	0.080706	-0.650433	-0.197611	0.030607	-0.702028	-0.160007	0.036932	-0.634209	-0.135142	0.028012	-0.635304	
3	0.0150	-0.253971	1.377587	-0.524378	-0.173496	1.370919	-0.697621	-0.201395	1.344440	-0.346932	-0.119804	1.330011	-0.520020	-0.108496	0.929900	-0.402555	-0.097722	0.935051	-0.637635	-0.164069	0.974173	-0.379465	-0.153882	0.975963	-0.663774	-0.268373	0.957723	-0.467550	-0.261062	0.960425	-0.581530	-0.270766	0.962934	-0.523427	-0.203792	0.718729	-0.366312	-0.176507	0.665631	-0.362212	-0.119507	0.691282	-0.345809	-0.139418	0.749528	-0.347907	-0.217603	0.319918	-0.364070	-0.234008	0.281434	-0.375623	-0.175870	0.264005	-0.375627	-0.163379	0.302442	-0.368728	-0.328217	0.093124	-0.434308	-0.184478	0.030276	-0.369662	-0.154364	0.037651	-0.436129	-0.125749	0.027881	-0.433543	-0.166247	0.740031	-0.702835	-0.144508	0.682337	-0.699928	-0.082807	0.700092	-0.688913	-0.097096	0.758156	-0.691166	-0.210682	0.328714	-0.698573	-0.231269	0.294036	-0.697000	-0.174336	0.268668	-0.688367	-0.160443	0.310567	-0.691659	-0.341834	0.084509	-0.651079	-0.196968	0.031088	-0.701975	-0.159832	0.036932	-0.634169	-0.135155	0.028065	-0.635316	
4	0.0200	-0.253967	1.383120	-0.524024	-0.174439	1.376475	-0.697535	-0.202246	1.350387	-0.347352	-0.120397	1.335928	-0.520216	-0.107564	0.935348	-0.402814	-0.097063	0.940460	-0.637439	-0.162791	0.980154	-0.379566	-0.153070	0.981886	-0.663490	-0.267297	0.963343	-0.467378	-0.260211	0.966046	-0.581358	-0.269517	0.968289	-0.523531	-0.203970	0.724176	-0.365705	-0.177004	0.670900	-0.361439	-0.119780	0.696246	-0.345507	-0.139286	0.754598	-0.347797	-0.218757	0.323797	-0.363415	-0.234835	0.285160	-0.374933	-0.176573	0.268193	-0.374662	-0.164423	0.306685	-0.367885	-0.326802	0.096215	-0.433326	-0.183853	0.030528	-0.369770	-0.154128	0.037664	-0.436103	-0.125806	0.027883	-0.433585	-0.166552	0.745671	-0.703045	-0.145099	0.687854	-0.700319	-0.083291	0.705289	-0.689378	-0.097287	0.763414	-0.691489	-0.211646	0.333254	-0.699394	-0.231939	0.298394	-0.697766	-0.174745	0.273511	-0.689458	-0.161205	0.315505	-0.692806	-0.340035	0.088311	-0.651714	-0.196312	0.031568	-0.701919	-0.159641	0.036940	-0.634118	-0.135169	0.028118	-0.635331	
5	0.0250	-0.254539	1.387630	-0.524083	-0.175400	1.381985	-0.697401	-0.203091	1.356351	-0.347795	-0.121065	1.341883	-0.520334	-0.106699	0.940800	-0.403083	-0.096422	0.945867	-0.637239	-0.161558	0.986162	-0.379700	-0.152224	0.987842	-0.663199	-0.266220	0.968990	-0.467267	-0.259354	0.971713	-0.581220	-0.268262	0.973709	-0.523685	-0.204161	0.729627	-0.365065	-0.177503	0.676202	-0.360662	-0.120059	0.701262	-0.345133	-0.139238	0.759729	-0.347587	-0.219808	0.327712	-0.362636	-0.235568	0.288897	-0.374157	-0.177193	0.272414	-0.373608	-0.165384	0.310971	-0.366931	-0.325137	0.099284	-0.432352	-0.183313	0.030758	-0.369750	-0.153872	0.037692	-0.436053	-0.125870	0.027892	-0.433623	-0.166969	0.751342	-0.703227	-0.145784	0.693407	-0.700735	-0.083858	0.710539	-0.689953	-0.097570	0.768725	-0.691888	-0.212579	0.337729	-0.700239	-0.232562	0.302699	-0.698527	-0.175089	0.278338	-0.690584	-0.161932	0.320420	-0.694007	-0.338120	0.092080	-0.652310	-0.195612	0.032066	-0.701882	-0.159422	0.036977	-0.634049	-0.135184	0.028180	-0.635365	
6	0.0300	-0.254941	1.392732	-0.524319	-0.176333	1.387444	-0.697243	-0.203900	1.362321	-0.348267	-0.121751	1.347782	-0.520472	-0.105906	0.946213	-0.403336	-0.095800	0.951237	-0.637043	-0.160353	0.992155	-0.379872	-0.151367	0.993773	-0.662917	-0.265161	0.974632	-0.467194	-0.258492	0.977394	-0.581112	-0.267141	0.979193	-0.523762	-0.204357	0.735066	-0.364451	-0.177996	0.681506	-0.359904	-0.120343	0.706297	-0.344731	-0.139211	0.764862	-0.347378	-0.220761	0.331645	-0.361757	-0.236217	0.292665	-0.373331	-0.177745	0.276638	-0.372470	-0.166245	0.315262	-0.365857	-0.323272	0.102313	-0.431339	-0.182772	0.031000	-0.369669	-0.153610	0.037709	-0.435964	-0.125939	0.027906	-0.433658	-0.167465	0.757016	-0.703389	-0.146530	0.698983	-0.701173	-0.084483	0.715820	-0.690611	-0.097928	0.774047	-0.692346	-0.213506	0.342119	-0.701083	-0.233148	0.306916	-0.699258	-0.175389	0.283104	-0.691720	-0.162643	0.325279	-0.695225	-0.336086	0.095860	-0.652888	-0.194876	0.032559	-0.701837	-0.159170	0.037036	-0.633959	-0.135209	0.028232	-0.635407	
7	0.0350	-0.255545	1.397761	-0.524699	-0.177232	1.392826	-0.697066	-0.204671	1.368261	-0.348769	-0.122469	1.353596	-0.520615	-0.105177	0.951562	-0.403588	-0.095202	0.956548	-0.636860	-0.159236	0.998083	-0.380059	-0.150504	0.999648	-0.662646	-0.264124	0.980256	-0.467154	-0.257626	0.983072	-0.581044	-0.266082	0.984700	-0.523824	-0.204573	0.740470	-0.363845	-0.178491	0.686789	-0.359137	-0.120647	0.711337	-0.344291	-0.139233	0.769988	-0.347139	-0.221651	0.335561	-0.360822	-0.236772	0.296437	-0.372467	-0.178210	0.280865	-0.371266	-0.167015	0.319545	-0.364678	-0.321196	0.105300	-0.430261	-0.182239	0.031246	-0.369527	-0.153327	0.037734	-0.435841	-0.126015	0.027927	-0.433677	-0.168041	0.762683	-0.703533	-0.147338	0.704569	-0.701633	-0.085167	0.721115	-0.691344	-0.098356	0.779383	-0.692857	-0.214416	0.346406	-0.701910	-0.233691	0.311021	-0.699949	-0.175637	0.287795	-0.692865	-0.163336	0.330063	-0.696455	-0.333930	0.099615	-0.653434	-0.194097	0.033063	-0.701792	-0.158883	0.037124	-0.633865	-0.135242	0.028297	-0.635489	
8	0.0400	-0.256006	1.402596	-0.524956	-0.178089	1.398105	-0.696874	-0.205376	1.374131	-0.349295	-0.123193	1.359297	-0.520776	-0.104501	0.956818	-0.403829	-0.094627	0.961773	-0.636689	-0.158199	1.003891	-0.380249	-0.149644	1.005422	-0.662398	-0.263113	0.985837	-0.467137	-0.256761	0.988720	-0.580994	-0.265090	0.990195	-0.523865	-0.204811	0.745808	-0.363259	-0.178998	0.692015	-0.358389	-0.120976	0.716336	-0.343826	-0.139293	0.775083	-0.346896	-0.222493	0.339422	-0.359881	-0.237237	0.300193	-0.371569	-0.178597	0.285072	-0.370023	-0.167702	0.323816	-0.363429	-0.319285	0.108635	-0.429493	-0.181680	0.031519	-0.369362	-0.153012	0.037775	-0.435689	-0.126094	0.027954	-0.433672	-0.168670	0.768321	-0.703661	-0.148189	0.710148	-0.702119	-0.085890	0.726406	-0.692138	-0.098837	0.784711	-0.693407	-0.215311	0.350566	-0.702699	-0.234187	0.314985	-0.700582	-0.175826	0.292378	-0.693994	-0.164006	0.334750	-0.697681	-0.331661	0.103338	-0.653957	-0.193275	0.033580	-0.701735	-0.158575	0.037247	-0.633782	-0.135290	0.028383	-0.635628	
9	0.0450	-0.256573	1.407422	-0.525201	-0.178888	1.403259	-0.696677	-0.206001	1.379887	-0.349839	-0.123922	1.364856	-0.520951	-0.103890	0.961945	-0.404066	-0.094076	0.966875	-0.636534	-0.157289	1.009519	-0.380480	-0.148799	1.011054	-0.662183	-0.262126	0.991342	-0.467146	-0.255897	0.994309	-0.580963	-0.264173	0.995651	-0.523865	-0.205083	0.751065	-0.362714	-0.179522	0.697168	-0.357655	-0.121349	0.721275	-0.343349	-0.139395	0.780099	-0.346652	-0.223274	0.343229	-0.358934	-0.237613	0.303900	-0.370643	-0.178914	0.289237	-0.368763	-0.168314	0.328054	-0.362152	-0.317325	0.112009	-0.428710	-0.181071	0.031833	-0.369204	-0.152648	0.037857	-0.435509	-0.126166	0.027996	-0.433628	-0.169328	0.773908	-0.703777	-0.149062	0.715689	-0.702618	-0.086632	0.731667	-0.692969	-0.099360	0.790002	-0.693982	-0.216184	0.354588	-0.703427	-0.234633	0.318799	-0.701146	-0.175962	0.296839	-0.695102	-0.164648	0.339321	-0.698873	-0.329292	0.107008	-0.654473	-0.192414	0.034123	-0.701663	-0.158266	0.037406	-0.633740	-0.135366	0.028508	-0.635859	
10	0.0500	-0.257052	1.412077	-0.525291	-0.179639	1.408264	-0.696479	-0.206546	1.385496	-0.350383	-0.124657	1.370244	-0.521131	-0.103335	0.966922	-0.404286	-0.093547	0.971829	-0.636390	-0.156539	1.014933	-0.380728	-0.147975	1.016507	-0.662003	-0.261171	0.996744	-0.467173	-0.255034	0.999806	-0.580956	-0.263267	1.001012	-0.523880	-0.205393	0.756203	-0.362210	-0.180070	0.702225	-0.356935	-0.121764	0.726132	-0.342860	-0.139554	0.785015	-0.346400	-0.224018	0.346963	-0.358034	-0.237929	0.307526	-0.369734	-0.179168	0.293343	-0.367519	-0.168865	0.332240	-0.360888	-0.315328	0.115387	-0.427906	-0.180404	0.032199	-0.369075	-0.152261	0.037994	-0.435287	-0.126219	0.028065	-0.433511	-0.170000	0.779419	-0.703896	-0.149932	0.721155	-0.703124	-0.087379	0.736866	-0.693814	-0.099904	0.795240	-0.694552	-0.217011	0.358463	-0.704074	-0.235017	0.322453	-0.701639	-0.176038	0.301156	-0.696166	-0.165259	0.343761	-0.700012	-0.326852	0.110579	-0.654987	-0.191518	0.034718	-0.701571	-0.157991	0.037605	-0.633766	-0.135486	0.028703	-0.636216	
11	0.0550	-0.257541	1.416379	-0.525349	-0.180351	1.413097	-0.696284	-0.207008	1.390916	-0.350918	-0.125387	1.375472	-0.521293	-0.102831	0.971718	-0.404514	-0.093038	0.976617	-0.636255	-0.155926	1.020099	-0.380978	-0.147172	1.021760	-0.661860	-0.260246	1.002023	-0.467216	-0.254179	1.005185	-0.580956	-0.262375	1.006251	-0.523917	-0.205748	0.761202	-0.361746	-0.180649	0.707148	-0.356251	-0.122229	0.730872	-0.342368	-0.139768	0.789808	-0.346140	-0.224724	0.350590	-0.357220	-0.238191	0.311020	-0.368869	-0.179359	0.297370	-0.366324	-0.169386	0.336354	-0.359696	-0.313297	0.118749	-0.427089	-0.179677	0.032642	-0.369011	-0.151843	0.038196	-0.435021	-0.126240	0.028174	-0.433286	-0.170664	0.784826	-0.704011	-0.150786	0.726516	-0.703622	-0.088112	0.741980	-0.694653	-0.100450	0.800396	-0.695102	-0.217782	0.362166	-0.704639	-0.235331	0.325928	-0.702066	-0.176049	0.305313	-0.697178	-0.165818	0.348057	-0.701074	-0.324375	0.114026	-0.655515	-0.190597	0.035390	-0.701463	-0.157766	0.037873	-0.633890	-0.135649	0.029021	-0.636733	
